<svg xmlns="http://www.w3.org/2000/svg" viewBox="0 0 198.17 49.33"><defs><style>.cls-1{fill:#fa6000;}</style></defs><g id="Layer_2" data-name="Layer 2"><g id="Layer_1-2" data-name="Layer 1"><path class="cls-1" d="M74.8,21.31c0-5.64-4-10.41-12.2-10.41a49.6,49.6,0,0,0-5.75.34V31.79a56.37,56.37,0,0,0,5.94.34c8.18,0,12-4.94,12-10.82m-3.78,0C71,25.74,68.63,29,63.33,29a17.3,17.3,0,0,1-3-.17V14.21A18.22,18.22,0,0,1,63,14c5.24,0,8,2.94,8,7.27"/><polygon class="cls-1" points="92.71 32.13 92.71 28.78 83.23 28.78 83.23 23.19 91.59 23.19 91.59 19.84 83.23 19.84 83.23 14.81 92.71 14.81 92.71 11.46 79.89 11.46 79.89 32.13 92.71 32.13"/><polygon class="cls-1" points="112.29 32.13 112.29 28.78 102.81 28.78 102.81 11.46 99.47 11.46 99.47 32.13 112.29 32.13"/><path class="cls-1" d="M136.06,32.13,126.45,10.9h-.51l-9.63,21.23H120l2-4.8h8.26l2,4.8Zm-7-7.63h-5.92l3-7Z"/><path class="cls-1" d="M148.46,20.91V24h4.76v4a7.69,7.69,0,0,1-4.12,1,7.21,7.21,0,0,1-7.25-7.49c0-4.1,2.62-7.4,7.28-7.4a10.23,10.23,0,0,1,5.48,1.71L156.2,13A12.93,12.93,0,0,0,149,10.9a10.62,10.62,0,1,0,0,21.23,13.23,13.23,0,0,0,7.61-2.24v-9Z"/><polygon class="cls-1" points="176.19 32.13 176.19 28.78 166.72 28.78 166.72 23.19 175.08 23.19 175.08 19.84 166.72 19.84 166.72 14.81 176.19 14.81 176.19 11.46 163.38 11.46 163.38 32.13 176.19 32.13"/><polygon class="cls-1" points="181.45 11.46 181.45 14.81 188.13 14.81 188.13 32.13 191.48 32.13 191.48 14.81 198.16 14.81 198.16 11.46 181.45 11.46"/><path class="cls-1" d="M33.37.06C33-.08,32.36,0,31.59.9L16.43,19.41a.18.18,0,0,1-.25,0L2.48,9.06C1.11,8,0,8.58,0,10.29V33a.18.18,0,0,0,.05.12l14.76,15.2a3.17,3.17,0,0,0,4.59,0L34,33.29a.66.66,0,0,0,.19-.46v-31C34.21.62,33.75.2,33.37.06ZM33.17,32a.18.18,0,0,1-.29.14L17.3,20.29a.18.18,0,0,1,0-.26L32.39,1.56c.35-.43.5-.55.62-.53s.16.25.16.81Z"/></g></g></svg>